<svg xmlns="http://www.w3.org/2000/svg" xmlns:xlink="http://www.w3.org/1999/xlink" width="500" zoomAndPan="magnify" viewBox="0 0 375 374.999991" height="500" preserveAspectRatio="xMidYMid meet" version="1.0"><defs><g/><linearGradient x1="0" gradientTransform="matrix(0.75, 0, 0, 0.75, 0.0000045, 0)" y1="250" x2="499.999979" gradientUnits="userSpaceOnUse" y2="250" id="0a01f28ef7"><stop stop-opacity="1" stop-color="rgb(100%, 19.219971%, 19.219971%)" offset="0"/><stop stop-opacity="1" stop-color="rgb(100%, 19.366455%, 19.262695%)" offset="0.0078125"/><stop stop-opacity="1" stop-color="rgb(100%, 19.659424%, 19.348145%)" offset="0.015625"/><stop stop-opacity="1" stop-color="rgb(100%, 19.953918%, 19.433594%)" offset="0.0234375"/><stop stop-opacity="1" stop-color="rgb(100%, 20.248413%, 19.519043%)" offset="0.03125"/><stop stop-opacity="1" stop-color="rgb(100%, 20.541382%, 19.604492%)" offset="0.0390625"/><stop stop-opacity="1" stop-color="rgb(100%, 20.835876%, 19.691467%)" offset="0.046875"/><stop stop-opacity="1" stop-color="rgb(100%, 21.130371%, 19.776917%)" offset="0.0546875"/><stop stop-opacity="1" stop-color="rgb(100%, 21.424866%, 19.862366%)" offset="0.0625"/><stop stop-opacity="1" stop-color="rgb(100%, 21.717834%, 19.947815%)" offset="0.0703125"/><stop stop-opacity="1" stop-color="rgb(100%, 22.012329%, 20.033264%)" offset="0.078125"/><stop stop-opacity="1" stop-color="rgb(100%, 22.306824%, 20.120239%)" offset="0.0859375"/><stop stop-opacity="1" stop-color="rgb(100%, 22.599792%, 20.205688%)" offset="0.09375"/><stop stop-opacity="1" stop-color="rgb(100%, 22.894287%, 20.291138%)" offset="0.101562"/><stop stop-opacity="1" stop-color="rgb(100%, 23.188782%, 20.376587%)" offset="0.109375"/><stop stop-opacity="1" stop-color="rgb(100%, 23.483276%, 20.463562%)" offset="0.117188"/><stop stop-opacity="1" stop-color="rgb(100%, 23.776245%, 20.549011%)" offset="0.125"/><stop stop-opacity="1" stop-color="rgb(100%, 24.07074%, 20.63446%)" offset="0.132812"/><stop stop-opacity="1" stop-color="rgb(100%, 24.365234%, 20.71991%)" offset="0.140625"/><stop stop-opacity="1" stop-color="rgb(100%, 24.658203%, 20.805359%)" offset="0.148437"/><stop stop-opacity="1" stop-color="rgb(100%, 24.952698%, 20.892334%)" offset="0.15625"/><stop stop-opacity="1" stop-color="rgb(100%, 25.247192%, 20.977783%)" offset="0.164062"/><stop stop-opacity="1" stop-color="rgb(100%, 25.541687%, 21.063232%)" offset="0.171875"/><stop stop-opacity="1" stop-color="rgb(100%, 25.834656%, 21.148682%)" offset="0.179687"/><stop stop-opacity="1" stop-color="rgb(100%, 26.12915%, 21.235657%)" offset="0.1875"/><stop stop-opacity="1" stop-color="rgb(100%, 26.423645%, 21.321106%)" offset="0.195312"/><stop stop-opacity="1" stop-color="rgb(100%, 26.716614%, 21.406555%)" offset="0.203125"/><stop stop-opacity="1" stop-color="rgb(100%, 27.011108%, 21.492004%)" offset="0.210938"/><stop stop-opacity="1" stop-color="rgb(100%, 27.305603%, 21.577454%)" offset="0.21875"/><stop stop-opacity="1" stop-color="rgb(100%, 27.600098%, 21.664429%)" offset="0.226562"/><stop stop-opacity="1" stop-color="rgb(100%, 27.893066%, 21.749878%)" offset="0.234375"/><stop stop-opacity="1" stop-color="rgb(100%, 28.187561%, 21.835327%)" offset="0.242188"/><stop stop-opacity="1" stop-color="rgb(100%, 28.482056%, 21.920776%)" offset="0.25"/><stop stop-opacity="1" stop-color="rgb(100%, 28.775024%, 22.006226%)" offset="0.257812"/><stop stop-opacity="1" stop-color="rgb(100%, 29.069519%, 22.093201%)" offset="0.265625"/><stop stop-opacity="1" stop-color="rgb(100%, 29.364014%, 22.17865%)" offset="0.273437"/><stop stop-opacity="1" stop-color="rgb(100%, 29.658508%, 22.264099%)" offset="0.28125"/><stop stop-opacity="1" stop-color="rgb(100%, 29.951477%, 22.349548%)" offset="0.289062"/><stop stop-opacity="1" stop-color="rgb(100%, 30.245972%, 22.436523%)" offset="0.296875"/><stop stop-opacity="1" stop-color="rgb(100%, 30.540466%, 22.521973%)" offset="0.304687"/><stop stop-opacity="1" stop-color="rgb(100%, 30.833435%, 22.607422%)" offset="0.3125"/><stop stop-opacity="1" stop-color="rgb(100%, 31.12793%, 22.692871%)" offset="0.320312"/><stop stop-opacity="1" stop-color="rgb(100%, 31.422424%, 22.77832%)" offset="0.328125"/><stop stop-opacity="1" stop-color="rgb(100%, 31.716919%, 22.865295%)" offset="0.335937"/><stop stop-opacity="1" stop-color="rgb(100%, 32.009888%, 22.950745%)" offset="0.34375"/><stop stop-opacity="1" stop-color="rgb(100%, 32.304382%, 23.036194%)" offset="0.351562"/><stop stop-opacity="1" stop-color="rgb(100%, 32.598877%, 23.121643%)" offset="0.359375"/><stop stop-opacity="1" stop-color="rgb(100%, 32.891846%, 23.208618%)" offset="0.367187"/><stop stop-opacity="1" stop-color="rgb(100%, 33.18634%, 23.294067%)" offset="0.375"/><stop stop-opacity="1" stop-color="rgb(100%, 33.480835%, 23.379517%)" offset="0.382812"/><stop stop-opacity="1" stop-color="rgb(100%, 33.77533%, 23.464966%)" offset="0.390625"/><stop stop-opacity="1" stop-color="rgb(100%, 34.068298%, 23.550415%)" offset="0.398438"/><stop stop-opacity="1" stop-color="rgb(100%, 34.362793%, 23.63739%)" offset="0.40625"/><stop stop-opacity="1" stop-color="rgb(100%, 34.657288%, 23.722839%)" offset="0.414062"/><stop stop-opacity="1" stop-color="rgb(100%, 34.951782%, 23.808289%)" offset="0.421875"/><stop stop-opacity="1" stop-color="rgb(100%, 35.244751%, 23.893738%)" offset="0.429688"/><stop stop-opacity="1" stop-color="rgb(100%, 35.539246%, 23.979187%)" offset="0.4375"/><stop stop-opacity="1" stop-color="rgb(100%, 35.83374%, 24.066162%)" offset="0.445312"/><stop stop-opacity="1" stop-color="rgb(100%, 36.126709%, 24.151611%)" offset="0.453125"/><stop stop-opacity="1" stop-color="rgb(100%, 36.421204%, 24.237061%)" offset="0.460938"/><stop stop-opacity="1" stop-color="rgb(100%, 36.715698%, 24.32251%)" offset="0.46875"/><stop stop-opacity="1" stop-color="rgb(100%, 37.010193%, 24.409485%)" offset="0.476562"/><stop stop-opacity="1" stop-color="rgb(100%, 37.303162%, 24.494934%)" offset="0.484375"/><stop stop-opacity="1" stop-color="rgb(100%, 37.597656%, 24.580383%)" offset="0.492188"/><stop stop-opacity="1" stop-color="rgb(100%, 37.892151%, 24.665833%)" offset="0.5"/><stop stop-opacity="1" stop-color="rgb(100%, 38.18512%, 24.751282%)" offset="0.507812"/><stop stop-opacity="1" stop-color="rgb(100%, 38.479614%, 24.838257%)" offset="0.515625"/><stop stop-opacity="1" stop-color="rgb(100%, 38.774109%, 24.923706%)" offset="0.523437"/><stop stop-opacity="1" stop-color="rgb(100%, 39.068604%, 25.009155%)" offset="0.53125"/><stop stop-opacity="1" stop-color="rgb(100%, 39.361572%, 25.094604%)" offset="0.539062"/><stop stop-opacity="1" stop-color="rgb(100%, 39.656067%, 25.18158%)" offset="0.546875"/><stop stop-opacity="1" stop-color="rgb(100%, 39.950562%, 25.267029%)" offset="0.554687"/><stop stop-opacity="1" stop-color="rgb(100%, 40.24353%, 25.352478%)" offset="0.5625"/><stop stop-opacity="1" stop-color="rgb(100%, 40.538025%, 25.437927%)" offset="0.570312"/><stop stop-opacity="1" stop-color="rgb(100%, 40.83252%, 25.523376%)" offset="0.578125"/><stop stop-opacity="1" stop-color="rgb(100%, 41.127014%, 25.610352%)" offset="0.585937"/><stop stop-opacity="1" stop-color="rgb(100%, 41.419983%, 25.695801%)" offset="0.59375"/><stop stop-opacity="1" stop-color="rgb(100%, 41.714478%, 25.78125%)" offset="0.601562"/><stop stop-opacity="1" stop-color="rgb(100%, 42.008972%, 25.866699%)" offset="0.609375"/><stop stop-opacity="1" stop-color="rgb(100%, 42.301941%, 25.952148%)" offset="0.617187"/><stop stop-opacity="1" stop-color="rgb(100%, 42.596436%, 26.039124%)" offset="0.625"/><stop stop-opacity="1" stop-color="rgb(100%, 42.89093%, 26.124573%)" offset="0.632812"/><stop stop-opacity="1" stop-color="rgb(100%, 43.185425%, 26.210022%)" offset="0.640625"/><stop stop-opacity="1" stop-color="rgb(100%, 43.478394%, 26.295471%)" offset="0.648437"/><stop stop-opacity="1" stop-color="rgb(100%, 43.772888%, 26.382446%)" offset="0.65625"/><stop stop-opacity="1" stop-color="rgb(100%, 44.067383%, 26.467896%)" offset="0.664062"/><stop stop-opacity="1" stop-color="rgb(100%, 44.360352%, 26.553345%)" offset="0.671875"/><stop stop-opacity="1" stop-color="rgb(100%, 44.654846%, 26.638794%)" offset="0.679687"/><stop stop-opacity="1" stop-color="rgb(100%, 44.949341%, 26.724243%)" offset="0.6875"/><stop stop-opacity="1" stop-color="rgb(100%, 45.243835%, 26.811218%)" offset="0.695312"/><stop stop-opacity="1" stop-color="rgb(100%, 45.536804%, 26.896667%)" offset="0.703125"/><stop stop-opacity="1" stop-color="rgb(100%, 45.831299%, 26.982117%)" offset="0.710937"/><stop stop-opacity="1" stop-color="rgb(100%, 46.125793%, 27.067566%)" offset="0.71875"/><stop stop-opacity="1" stop-color="rgb(100%, 46.418762%, 27.154541%)" offset="0.726562"/><stop stop-opacity="1" stop-color="rgb(100%, 46.713257%, 27.23999%)" offset="0.734375"/><stop stop-opacity="1" stop-color="rgb(100%, 47.007751%, 27.325439%)" offset="0.742187"/><stop stop-opacity="1" stop-color="rgb(100%, 47.302246%, 27.410889%)" offset="0.75"/><stop stop-opacity="1" stop-color="rgb(100%, 47.595215%, 27.496338%)" offset="0.757812"/><stop stop-opacity="1" stop-color="rgb(100%, 47.889709%, 27.583313%)" offset="0.765625"/><stop stop-opacity="1" stop-color="rgb(100%, 48.184204%, 27.668762%)" offset="0.773438"/><stop stop-opacity="1" stop-color="rgb(100%, 48.477173%, 27.754211%)" offset="0.78125"/><stop stop-opacity="1" stop-color="rgb(100%, 48.771667%, 27.839661%)" offset="0.789062"/><stop stop-opacity="1" stop-color="rgb(100%, 49.066162%, 27.92511%)" offset="0.796875"/><stop stop-opacity="1" stop-color="rgb(100%, 49.360657%, 28.012085%)" offset="0.804688"/><stop stop-opacity="1" stop-color="rgb(100%, 49.653625%, 28.097534%)" offset="0.8125"/><stop stop-opacity="1" stop-color="rgb(100%, 49.94812%, 28.182983%)" offset="0.820312"/><stop stop-opacity="1" stop-color="rgb(100%, 50.242615%, 28.268433%)" offset="0.828125"/><stop stop-opacity="1" stop-color="rgb(100%, 50.535583%, 28.355408%)" offset="0.835938"/><stop stop-opacity="1" stop-color="rgb(100%, 50.830078%, 28.440857%)" offset="0.84375"/><stop stop-opacity="1" stop-color="rgb(100%, 51.124573%, 28.526306%)" offset="0.851562"/><stop stop-opacity="1" stop-color="rgb(100%, 51.419067%, 28.611755%)" offset="0.859375"/><stop stop-opacity="1" stop-color="rgb(100%, 51.712036%, 28.697205%)" offset="0.867188"/><stop stop-opacity="1" stop-color="rgb(100%, 52.006531%, 28.78418%)" offset="0.875"/><stop stop-opacity="1" stop-color="rgb(100%, 52.301025%, 28.869629%)" offset="0.882812"/><stop stop-opacity="1" stop-color="rgb(100%, 52.59552%, 28.955078%)" offset="0.890625"/><stop stop-opacity="1" stop-color="rgb(100%, 52.888489%, 29.040527%)" offset="0.898438"/><stop stop-opacity="1" stop-color="rgb(100%, 53.182983%, 29.127502%)" offset="0.90625"/><stop stop-opacity="1" stop-color="rgb(100%, 53.477478%, 29.212952%)" offset="0.914062"/><stop stop-opacity="1" stop-color="rgb(100%, 53.770447%, 29.298401%)" offset="0.921875"/><stop stop-opacity="1" stop-color="rgb(100%, 54.064941%, 29.38385%)" offset="0.929688"/><stop stop-opacity="1" stop-color="rgb(100%, 54.359436%, 29.469299%)" offset="0.9375"/><stop stop-opacity="1" stop-color="rgb(100%, 54.653931%, 29.556274%)" offset="0.945312"/><stop stop-opacity="1" stop-color="rgb(100%, 54.946899%, 29.641724%)" offset="0.953125"/><stop stop-opacity="1" stop-color="rgb(100%, 55.241394%, 29.727173%)" offset="0.960938"/><stop stop-opacity="1" stop-color="rgb(100%, 55.535889%, 29.812622%)" offset="0.96875"/><stop stop-opacity="1" stop-color="rgb(100%, 55.828857%, 29.899597%)" offset="0.976562"/><stop stop-opacity="1" stop-color="rgb(100%, 56.123352%, 29.985046%)" offset="0.984375"/><stop stop-opacity="1" stop-color="rgb(100%, 56.417847%, 30.070496%)" offset="0.992188"/><stop stop-opacity="1" stop-color="rgb(100%, 56.712341%, 30.155945%)" offset="1"/></linearGradient><clipPath id="68b36045cd"><rect x="0" width="372" y="0" height="236"/></clipPath></defs><rect x="-37.5" width="450" fill="#ffffff" y="-37.499999" height="449.999989" fill-opacity="1"/><rect x="-37.5" fill="url(#0a01f28ef7)" width="450" y="-37.499999" height="449.999989"/><g transform="matrix(1, 0, 0, 1, 0, 68)"><g clip-path="url(#68b36045cd)"><g fill="#ffffff" fill-opacity="1"><g transform="translate(-4.772723, 183.744113)"><g><path d="M 59.890625 -122.296875 C 79.742188 -122.296875 94.898438 -117.164062 105.359375 -106.90625 C 115.816406 -96.644531 121.046875 -81.390625 121.046875 -61.140625 C 121.046875 -40.953125 115.816406 -25.710938 105.359375 -15.421875 C 94.898438 -5.140625 79.742188 0 59.890625 0 L 15.890625 0 L 15.890625 -122.296875 Z M 58.46875 -20.328125 C 71.070312 -20.328125 80.492188 -23.546875 86.734375 -29.984375 C 92.984375 -36.429688 96.109375 -46.816406 96.109375 -61.140625 C 96.109375 -75.472656 92.984375 -85.859375 86.734375 -92.296875 C 80.492188 -98.742188 71.070312 -101.96875 58.46875 -101.96875 L 40.0625 -101.96875 L 40.0625 -20.328125 Z M 58.46875 -20.328125 "/></g></g></g><g fill="#ffffff" fill-opacity="1"><g transform="translate(125.961365, 183.744113)"><g><path d="M 24.84375 -103.3125 C 20.65625 -103.3125 17.25 -104.578125 14.625 -107.109375 C 12.007812 -109.648438 10.703125 -112.925781 10.703125 -116.9375 C 10.703125 -120.894531 12.007812 -124.140625 14.625 -126.671875 C 17.25 -129.210938 20.65625 -130.484375 24.84375 -130.484375 C 27.632812 -130.484375 30.113281 -129.898438 32.28125 -128.734375 C 34.457031 -127.566406 36.144531 -125.960938 37.34375 -123.921875 C 38.539062 -121.890625 39.140625 -119.5625 39.140625 -116.9375 C 39.140625 -114.320312 38.539062 -111.976562 37.34375 -109.90625 C 36.144531 -107.84375 34.457031 -106.226562 32.28125 -105.0625 C 30.113281 -103.894531 27.632812 -103.3125 24.84375 -103.3125 Z M 13.296875 0 L 13.296875 -92.265625 L 36.46875 -92.265625 L 36.46875 0 Z M 13.296875 0 "/></g></g></g><g fill="#ffffff" fill-opacity="1"><g transform="translate(175.645328, 183.744113)"><g><path d="M 20.40625 39.140625 C 16.445312 39.140625 12.863281 38.832031 9.65625 38.21875 C 6.457031 37.613281 3.851562 36.804688 1.84375 35.796875 L 5.515625 17.0625 L 7.03125 16.5625 C 8.425781 17.289062 10.15625 17.875 12.21875 18.3125 C 14.28125 18.757812 16.394531 18.984375 18.5625 18.984375 C 22.300781 18.984375 25.410156 18.492188 27.890625 17.515625 C 30.378906 16.546875 32.488281 14.929688 34.21875 12.671875 C 35.945312 10.410156 37.476562 7.273438 38.8125 3.265625 L 2 -92.265625 L 26.265625 -92.265625 L 49.1875 -28.109375 L 51.1875 -28.109375 L 73.53125 -92.265625 L 97.109375 -92.265625 L 60.0625 5.765625 C 57.101562 13.691406 53.851562 20.066406 50.3125 24.890625 C 46.769531 29.710938 42.585938 33.289062 37.765625 35.625 C 32.941406 37.96875 27.15625 39.140625 20.40625 39.140625 Z M 20.40625 39.140625 "/></g></g></g><g fill="#ffffff" fill-opacity="1"><g transform="translate(272.922104, 183.744113)"><g><path d="M 35.96875 1.75 C 30.0625 1.75 24.929688 0.664062 20.578125 -1.5 C 16.222656 -3.675781 12.875 -6.867188 10.53125 -11.078125 C 8.195312 -15.296875 7.03125 -20.359375 7.03125 -26.265625 C 7.03125 -31.734375 8.195312 -36.320312 10.53125 -40.03125 C 12.875 -43.738281 16.5 -46.773438 21.40625 -49.140625 C 26.320312 -51.515625 32.738281 -53.34375 40.65625 -54.625 C 46.175781 -55.519531 50.367188 -56.492188 53.234375 -57.546875 C 56.109375 -58.609375 58.046875 -59.804688 59.046875 -61.140625 C 60.054688 -62.484375 60.5625 -64.1875 60.5625 -66.25 C 60.5625 -69.207031 59.53125 -71.46875 57.46875 -73.03125 C 55.40625 -74.59375 51.972656 -75.375 47.171875 -75.375 C 42.046875 -75.375 37.164062 -74.226562 32.53125 -71.9375 C 27.90625 -69.65625 23.894531 -66.644531 20.5 -62.90625 L 18.828125 -62.90625 L 9.125 -77.546875 C 13.800781 -82.734375 19.515625 -86.773438 26.265625 -89.671875 C 33.015625 -92.566406 40.375 -94.015625 48.34375 -94.015625 C 60.5625 -94.015625 69.398438 -91.421875 74.859375 -86.234375 C 80.328125 -81.054688 83.0625 -73.695312 83.0625 -64.15625 L 83.0625 -24.09375 C 83.0625 -19.96875 84.875 -17.90625 88.5 -17.90625 C 89.894531 -17.90625 91.257812 -18.15625 92.59375 -18.65625 L 93.765625 -18.3125 L 95.4375 -2.171875 C 94.15625 -1.335938 92.367188 -0.65625 90.078125 -0.125 C 87.796875 0.40625 85.289062 0.671875 82.5625 0.671875 C 77.039062 0.671875 72.734375 -0.382812 69.640625 -2.5 C 66.546875 -4.625 64.328125 -7.945312 62.984375 -12.46875 L 61.234375 -12.625 C 56.710938 -3.039062 48.289062 1.75 35.96875 1.75 Z M 43.328125 -15.5625 C 48.679688 -15.5625 52.960938 -17.359375 56.171875 -20.953125 C 59.378906 -24.546875 60.984375 -29.550781 60.984375 -35.96875 L 60.984375 -45.34375 L 59.390625 -45.671875 C 57.992188 -44.554688 56.164062 -43.617188 53.90625 -42.859375 C 51.65625 -42.109375 48.410156 -41.375 44.171875 -40.65625 C 39.148438 -39.820312 35.535156 -38.382812 33.328125 -36.34375 C 31.128906 -34.3125 30.03125 -31.425781 30.03125 -27.6875 C 30.03125 -23.726562 31.203125 -20.71875 33.546875 -18.65625 C 35.890625 -16.59375 39.148438 -15.5625 43.328125 -15.5625 Z M 43.328125 -15.5625 "/></g></g></g></g></g></svg>